<svg xmlns="http://www.w3.org/2000/svg" viewBox="0 0 558.47 1004.22"><defs><style>.cls-1{fill:#fff;}.cls-2{fill:none;stroke:#fff;stroke-miterlimit:10;}</style></defs><g id="Layer_2" data-name="Layer 2"><g id="Layer_1-2" data-name="Layer 1"><path class="cls-1" d="M0,885H47.49v71.23H59.36V885h47.5v71.23h59.36v47.5H0Z"/><path class="cls-1" d="M106.86,825.62h11.87V742.51h47.49V873.12H0V742.51H47.49v83.11H59.36V790h47.5Z"/><path class="cls-1" d="M118.73,683.15V623.79h47.49V730.64H0V683.15Z"/><path class="cls-1" d="M0,564.42H166.22v47.49H0Z"/><path class="cls-1" d="M115.88,392.86a82,82,0,0,1,26,17.81q24.35,24.34,24.34,58.77t-24.34,58.77q-24.33,24.35-58.77,24.34T24.34,528.21Q0,503.88,0,469.44t24.34-58.77a84.2,84.2,0,0,1,25.88-17.93L69.1,436.55a35.8,35.8,0,0,0-11.16,7.72,35.62,35.62,0,0,0,25.17,60.79,35.6,35.6,0,0,0,25.17-60.79,34.93,34.93,0,0,0-11.16-7.6Z"/><path class="cls-1" d="M0,333.38H166.22v47.49H0Z"/><path class="cls-1" d="M166.22,226.52V274H47.49v47.5H0V179H47.49v47.49Z"/><path class="cls-1" d="M83.11,110.64,0,167.16V113.38l43.22-29L0,54.84V.94l166.22,112v54.26Z"/><path class="cls-2" d="M195.87,885h47.5v71.23h11.87V885h47.49v71.23h59.36v47.5H195.87Z"/><path class="cls-2" d="M302.73,825.62H314.6V742.51h47.49V873.12H195.87V742.51h47.5v83.11h11.87V790h47.49Z"/><path class="cls-2" d="M314.6,683.15V623.79h47.49V730.64H195.87V683.15Z"/><path class="cls-2" d="M195.87,564.42H362.09v47.49H195.87Z"/><path class="cls-2" d="M311.75,392.86a81.91,81.91,0,0,1,26,17.81Q362.1,435,362.09,469.44t-24.34,58.77Q313.42,552.56,279,552.55t-58.77-24.34q-24.33-24.33-24.34-58.77t24.34-58.77a84.24,84.24,0,0,1,25.89-17.93L265,436.55a36,36,0,0,0-11.16,7.72,35.62,35.62,0,1,0,50.34,0,34.93,34.93,0,0,0-11.16-7.6Z"/><path class="cls-2" d="M195.87,333.38H362.09v47.49H195.87Z"/><path class="cls-2" d="M362.09,226.52V274H243.37v47.5h-47.5V179h47.5v47.49Z"/><path class="cls-2" d="M279,110.64l-83.11,56.52V113.38l43.22-29L195.87,54.84V.94l166.22,112v54.26Z"/><path class="cls-2" d="M391.75,885h47.49v71.23h11.87V885H498.6v71.23H558v47.5H391.75Z"/><path class="cls-2" d="M498.6,825.62h11.88V742.51H558V873.12H391.75V742.51h47.49v83.11h11.87V790H498.6Z"/><path class="cls-2" d="M510.48,683.15V623.79H558V730.64H391.75V683.15Z"/><path class="cls-2" d="M391.75,564.42H558v47.49H391.75Z"/><path class="cls-2" d="M507.63,392.86a82,82,0,0,1,26,17.81Q558,435,558,469.44t-24.34,58.77q-24.33,24.35-58.77,24.34t-58.77-24.34q-24.34-24.33-24.34-58.77t24.34-58.77A84.08,84.08,0,0,1,442,392.74l18.88,43.81a35.8,35.8,0,0,0-11.16,7.72,35.62,35.62,0,1,0,50.34,0,35,35,0,0,0-11.16-7.6Z"/><path class="cls-2" d="M391.75,333.38H558v47.49H391.75Z"/><path class="cls-2" d="M558,226.52V274H439.24v47.5H391.75V179h47.49v47.49Z"/><path class="cls-2" d="M474.86,110.64l-83.11,56.52V113.38l43.22-29L391.75,54.84V.94L558,112.9v54.26Z"/></g></g></svg>